<svg width="64" height="65" viewBox="0 0 64 65" fill="none" xmlns="http://www.w3.org/2000/svg">
<g clip-path="url(#clip0_666_3362)">
<path d="M58.895 23.4985C59.3812 25.3413 58.2815 27.2288 56.4388 27.7149C54.6096 28.1975 52.7111 27.1114 52.2224 25.2587C51.7363 23.4159 52.8359 21.5284 54.6786 21.0423C56.5105 20.5589 58.4068 21.6477 58.895 23.4985Z" fill="#79E59B"/>
<path d="M33.1794 36.9437C35.6363 36.2956 37.1025 33.7786 36.4544 31.3218C35.8064 28.8649 33.2893 27.3987 30.8325 28.0467C28.3757 28.6948 26.9094 31.2119 27.5575 33.6687C28.2056 36.1255 30.7226 37.5918 33.1794 36.9437Z" fill="#ED4C74"/>
<path d="M22.9268 53.0891C24.7696 52.603 26.6571 53.7027 27.1432 55.5454C27.6332 57.4029 26.5126 59.2802 24.687 59.7618C22.8441 60.2479 20.9566 59.1483 20.4705 57.3056C19.9835 55.4598 21.0875 53.5743 22.9268 53.0891Z" fill="#FEDF66"/>
<path d="M9.0676 15.3728C10.6782 17.2821 9.77724 20.278 7.30635 20.9298C5.47143 21.4138 3.57769 20.3226 3.08993 18.4735C2.60381 16.6307 3.70346 14.7432 5.54617 14.2571C6.8784 13.9056 8.23433 14.383 9.0676 15.3728Z" fill="#78D4FF"/>
<path d="M57.4545 17.3709C54.8967 12.9018 47.655 13.5 42.6338 14.6412C40.5294 6.45623 37.1541 1.9592 33.0715 1.94338C28.9089 1.9263 24.8775 6.67713 22.179 14.7139C16.7622 13.2735 12.2738 13.0376 9.33501 14.0342C8.20753 13.1166 6.68481 12.7673 5.25262 13.1451C2.79976 13.7921 1.33057 16.3141 1.97762 18.767C2.35542 20.1992 3.4105 21.3513 4.76478 21.8797C5.34725 24.9275 7.76672 28.716 11.6915 32.7174C6.0313 39.0287 3.88741 44.8786 5.95519 48.4913C7.88666 51.867 13.0962 52.6781 20.6887 50.8115C20.843 51.4621 21.0117 52.0713 21.194 52.6362C19.6236 53.711 18.8506 55.674 19.3584 57.5993C20.0055 60.0522 22.5275 61.5213 24.9804 60.8743C25.2441 60.8047 25.4975 60.7121 25.7406 60.5996C27.3402 62.1968 29.1227 63.0392 30.9408 63.0464C36.3903 63.0679 40.1273 55.378 41.8539 50.2117C47.2018 51.5749 55.7685 52.7078 58.5393 47.9512C61.3156 43.183 56.0747 36.2693 52.2448 32.2911C53.2792 31.1465 54.1917 30.024 54.9694 28.939C55.5553 29.0154 56.1523 28.9802 56.7322 28.8273C59.1851 28.1802 60.6543 25.6582 60.0072 23.2053C59.7367 22.1799 59.1225 21.2886 58.2832 20.673C58.2884 19.4513 58.0113 18.3428 57.4545 17.3709ZM55.4582 18.5138C55.6789 18.8992 55.8299 19.3266 55.9115 19.7926C55.403 19.7534 54.8872 19.7977 54.3851 19.9301C51.9322 20.5772 50.4631 23.0992 51.1101 25.5521C51.3765 26.562 51.9693 27.4301 52.7762 28.0415C52.1412 28.8933 51.4178 29.7714 50.6121 30.6674C48.7335 28.8798 46.6452 27.1447 44.3861 25.4943C44.1368 22.4424 43.7248 19.5526 43.1582 16.8807C49.481 15.4481 54.0416 16.0385 55.4582 18.5138ZM40.316 47.3968C38.4877 46.8445 36.6243 46.1735 34.7462 45.3917C35.9364 44.7847 37.1217 44.1441 38.2892 43.4758C39.4092 42.8347 40.5271 42.1395 41.6317 41.3991C41.3002 43.4692 40.8602 45.4756 40.316 47.3968ZM10.747 16.0169C13.2364 15.4215 17.0227 15.7321 21.4982 16.9127C20.7349 19.5965 20.1668 22.4396 19.8045 25.387C17.4189 27.1562 15.226 29.0528 13.2684 31.0403C10.034 27.7297 7.89614 24.589 7.18604 22.1299C10.0195 21.6499 11.7315 18.7294 10.747 16.0169ZM29.2939 19.5968C28.0958 20.199 26.9013 20.8398 25.7232 21.5137C24.5938 22.1596 23.4771 22.8501 22.3832 23.5762C22.7172 21.4936 23.1606 19.4771 23.7089 17.5487C25.5418 18.1186 27.4102 18.8038 29.2939 19.5968ZM41.9128 23.769C40.7541 22.9976 39.5703 22.2594 38.3745 21.5627C37.206 20.882 36.0042 20.2283 34.7819 19.608C36.8879 18.7333 38.9451 18.0103 40.9273 17.4494C41.3453 19.4361 41.6746 21.5512 41.9128 23.769ZM37.1467 41.4793C35.4592 42.4451 33.7344 43.3511 32.012 44.1782C30.2386 43.3434 28.486 42.424 26.7956 41.4392C25.064 40.4305 23.3541 39.3283 21.7038 38.1596C21.6621 36.4727 21.6465 34.642 21.655 32.4546C21.6619 30.5304 21.7705 28.5811 21.9754 26.6517C23.552 25.5223 25.1943 24.4662 26.8653 23.5107C28.5674 22.537 30.3039 21.6351 32.0344 20.8236C33.8052 21.6623 35.5464 22.5778 37.2165 23.5508C38.9065 24.5353 40.5707 25.6063 42.1721 26.7373C42.3022 28.6438 42.3649 30.5912 42.3572 32.5352C42.3498 34.4487 42.2422 36.3891 42.0397 38.3113C40.4378 39.4709 38.7943 40.5364 37.1467 41.4793ZM19.5014 28.5233C19.4093 29.8332 19.3596 31.1451 19.3548 32.446C19.3492 33.9128 19.3544 35.2214 19.3707 36.4361C17.7812 35.2085 16.2893 33.9418 14.9121 32.6497C16.319 31.2216 17.8543 29.8412 19.5014 28.5233ZM21.8078 41.0257C23.0628 41.8691 24.3442 42.6734 25.6376 43.4268C26.8332 44.1233 28.0587 44.7886 29.3007 45.4158C26.9597 46.4283 24.6451 47.2843 22.4697 47.9393C22.1587 45.993 21.9395 43.7088 21.8078 41.0257ZM44.6575 32.5439C44.6628 31.1988 44.6354 29.8518 44.5764 28.5168C46.169 29.754 47.6596 31.0327 49.0321 32.3393C47.6448 33.7397 46.117 35.1175 44.5139 36.4158C44.6037 35.122 44.6524 33.8273 44.6575 32.5439ZM28.3426 7.41465C29.4452 5.96378 31.1588 4.23594 33.0625 4.24341C35.9196 4.25446 38.6312 8.33015 40.4031 15.2074C37.718 15.9602 34.9132 16.9942 32.0396 18.289C29.4626 17.1165 26.8974 16.1311 24.393 15.3524C25.4918 12.112 26.8468 9.38286 28.3426 7.41465ZM5.83945 15.3692C7.04674 15.0507 8.32233 15.7627 8.65049 17.0068C8.97401 18.2332 8.23949 19.4942 7.01295 19.8178C5.77672 20.1439 4.52282 19.3968 4.20191 18.1803C3.87836 16.9537 4.61291 15.6928 5.83945 15.3692ZM7.95184 47.3489C7.00648 45.6972 7.66416 43.3539 8.38239 41.6791C9.35669 39.4071 11.0622 36.8824 13.3391 34.328C15.1887 36.0632 17.2343 37.7524 19.4379 39.3638C19.5606 43.0272 19.8233 46.0519 20.2382 48.5519C13.8578 50.1319 9.29765 49.7014 7.95184 47.3489ZM21.5826 57.0126C21.2567 55.7772 21.9837 54.5277 23.2202 54.2015C24.4466 53.878 25.7077 54.6125 26.0312 55.8391C26.358 57.078 25.6095 58.3294 24.3937 58.6501C23.1671 58.9736 21.9061 58.239 21.5826 57.0126ZM35.6809 57.5599C34.5758 59.0176 32.8575 60.754 30.9498 60.746C29.7904 60.7414 28.642 60.1975 27.5262 59.1297C28.3264 58.0295 28.6135 56.6101 28.2554 55.2523C27.6719 53.0404 25.5639 51.6293 23.3569 51.8473C23.1965 51.3423 23.0467 50.7961 22.9092 50.2083C25.8156 49.3495 28.874 48.1779 32.023 46.7167C34.587 47.8742 37.1401 48.8394 39.6344 49.5937C38.5353 52.845 37.1791 55.5838 35.6809 57.5599ZM56.5514 46.7935C55.0649 49.3453 49.6224 49.7965 42.5331 48.0107C43.2906 45.3331 43.8539 42.5005 44.2123 39.5679C46.5139 37.84 48.7185 35.9239 50.6615 33.9633C55.7363 39.2628 58.0419 44.2339 56.5514 46.7935ZM56.1454 26.6028C54.9359 26.9219 53.6626 26.2094 53.3344 24.9653C53.0109 23.7389 53.7454 22.4778 54.9719 22.1543C56.1955 21.8315 57.4592 22.5646 57.783 23.7918C58.1064 25.0184 57.3719 26.2793 56.1454 26.6028Z" fill="black"/>
<path d="M30.5393 26.934C27.4731 27.7429 25.6367 30.8954 26.4455 33.9615C27.2543 37.0276 30.4068 38.8641 33.4729 38.0553C36.5391 37.2465 38.3755 34.0939 37.5667 31.0278C36.7579 27.9617 33.6054 26.1252 30.5393 26.934ZM32.8862 35.831C31.0465 36.3163 29.155 35.2143 28.6698 33.3747C28.1845 31.5352 29.2864 29.6436 31.126 29.1583C32.9656 28.6731 34.8572 29.775 35.3424 31.6146C35.8277 33.4542 34.7259 35.3457 32.8862 35.831Z" fill="black"/>
</g>
<defs>
<clipPath id="clip0_666_3362">
<rect width="64" height="64" fill="white" transform="translate(0 0.5)"/>
</clipPath>
</defs>
</svg>
