<svg width="64" height="65" viewBox="0 0 64 65" fill="none" xmlns="http://www.w3.org/2000/svg">
<g clip-path="url(#clip0_666_3335)">
<path d="M34.1409 1.58654L15.1867 38.4163C15.0951 38.5942 15.2243 38.8059 15.4245 38.8059H27.1178C27.2757 38.8059 27.3993 38.9421 27.3839 39.0993L25.0129 63.2646C24.9839 63.5597 25.3855 63.6755 25.5181 63.4102L44.6309 25.1813C44.7198 25.0036 44.5905 24.7944 44.3918 24.7944H33.0078C32.8514 24.7944 32.7283 24.6607 32.7413 24.5048L34.645 1.73117C34.6693 1.43952 34.2748 1.32635 34.1409 1.58654V1.58654Z" fill="#72D8FF"/>
<path d="M34.645 1.73117C34.6693 1.43952 34.2748 1.32635 34.1409 1.58654L15.1867 38.4163C15.0951 38.5942 15.2243 38.8059 15.4245 38.8059H27.1178C27.2757 38.8059 27.3993 38.9421 27.3839 39.0993L25.0129 63.2646C24.9839 63.5597 25.3855 63.6755 25.5181 63.4102L30.8406 52.7642L32.571 35.1275C32.5864 34.9703 32.463 34.8341 32.3049 34.8341H24.5266C23.4093 34.8341 22.6879 33.6516 23.1992 32.6581L33.7779 12.1025L34.645 1.73117Z" fill="#2E9DE3"/>
<path d="M49.4585 11.9377C49.0405 11.6297 48.4522 11.719 48.1441 12.1368L45.7721 15.3559C45.4642 15.7739 45.5534 16.3623 45.9713 16.6703C46.1392 16.794 46.3345 16.8535 46.5281 16.8535C46.8166 16.8535 47.1013 16.7211 47.2856 16.4711L49.6576 13.252C49.9656 12.8342 49.8763 12.2457 49.4585 11.9377V11.9377Z" fill="black"/>
<path d="M47.2856 48.815C46.9777 48.3971 46.3894 48.308 45.9713 48.6158C45.5534 48.9239 45.4642 49.5122 45.7721 49.9302L48.1441 53.1493C48.3285 53.3993 48.6131 53.5317 48.9016 53.5317C49.0953 53.5317 49.2907 53.472 49.4585 53.3484C49.8763 53.0404 49.9656 52.4521 49.6576 52.0341L47.2856 48.815Z" fill="black"/>
<path d="M57.2875 31.7031H53.9837C53.4644 31.7031 53.0437 32.124 53.0437 32.6431C53.0437 33.1622 53.4644 33.5831 53.9837 33.5831H57.2875C57.8067 33.5831 58.2275 33.1622 58.2275 32.6431C58.2275 32.124 57.8066 31.7031 57.2875 31.7031V31.7031Z" fill="black"/>
<path d="M16.7144 16.4711C16.8988 16.7211 17.1834 16.8535 17.4719 16.8535C17.6656 16.8535 17.861 16.7938 18.0288 16.6703C18.4466 16.3622 18.5359 15.7739 18.2279 15.3559L15.8559 12.1368C15.548 11.719 14.9596 11.6297 14.5416 11.9377C14.1238 12.2457 14.0345 12.834 14.3425 13.252L16.7144 16.4711Z" fill="black"/>
<path d="M18.0287 48.6159C17.6108 48.3081 17.0224 48.397 16.7144 48.815L14.3424 52.0341C14.0344 52.4521 14.1235 53.0405 14.5415 53.3485C14.7095 53.4722 14.9047 53.5317 15.0984 53.5317C15.3869 53.5317 15.6716 53.3993 15.8559 53.1493L18.2278 49.9302C18.5358 49.5122 18.4467 48.9238 18.0287 48.6159Z" fill="black"/>
<path d="M10.0164 31.7031H6.71256C6.19344 31.7031 5.77258 32.124 5.77258 32.6431C5.77258 33.1622 6.19344 33.5831 6.71256 33.5831H10.0164C10.5355 33.5831 10.9564 33.1622 10.9564 32.6431C10.9564 32.124 10.5355 31.7031 10.0164 31.7031V31.7031Z" fill="black"/>
<path d="M32.1984 50.0485C31.7343 49.8165 31.1694 50.0046 30.9373 50.4689L26.3034 59.7378L28.3193 39.1914C28.3525 38.853 28.2406 38.5145 28.0121 38.2625C27.7838 38.0107 27.4578 37.8662 27.1178 37.8662H16.527L26.2697 18.9353C26.5073 18.4737 26.3257 17.9069 25.8641 17.6694C25.4025 17.4318 24.8358 17.6134 24.5981 18.0749L14.3509 37.9865C14.1568 38.3639 14.1729 38.8054 14.3939 39.1677C14.615 39.5299 15.0002 39.7463 15.4246 39.7463H26.3761L24.0774 63.1732C24.0197 63.7617 24.3762 64.2872 24.9444 64.451C25.0596 64.4843 25.1753 64.5003 25.2888 64.5003C25.7354 64.5003 26.1478 64.2526 26.3589 63.8309L32.6189 51.3097C32.851 50.8453 32.6627 50.2807 32.1984 50.0485Z" fill="black"/>
<path d="M24.7929 19.6979C25.2546 19.9356 25.8214 19.7539 26.0589 19.2923L33.3651 4.9818L31.7437 24.3786C31.7158 24.7141 31.8304 25.0486 32.0584 25.2963C32.2864 25.5441 32.6102 25.6861 32.9469 25.6861H42.5601C43.0794 25.6861 43.5001 25.2652 43.5001 24.7461C43.5001 24.227 43.0794 23.8061 42.5601 23.8061H33.6781L35.5208 1.76144C35.5697 1.17979 35.2118 0.661171 34.6509 0.500122C34.0901 0.338948 33.5114 0.589106 33.2443 1.1081L24.3874 18.4319C24.1497 18.8935 24.3313 19.4604 24.7929 19.6979Z" fill="black"/>
<path d="M45.4185 24.427C45.1968 24.0684 44.8131 23.8545 44.3916 23.8545H40.6268C40.1076 23.8545 39.6868 24.2754 39.6868 24.7945C39.6868 25.3136 40.1076 25.7344 40.6268 25.7344H43.3032L31.0798 50.2388C30.8476 50.7032 31.0358 51.2678 31.5002 51.5C31.635 51.5674 31.7785 51.5994 31.9198 51.5994C32.2646 51.5994 32.5966 51.4089 32.7613 51.0796L45.4714 25.6017C45.6599 25.2246 45.6401 24.7856 45.4185 24.427Z" fill="black"/>
</g>
<defs>
<clipPath id="clip0_666_3335">
<rect width="64" height="64" fill="white" transform="translate(0 0.5)"/>
</clipPath>
</defs>
</svg>
