<svg width="64" height="65" viewBox="0 0 64 65" fill="none" xmlns="http://www.w3.org/2000/svg">
<g clip-path="url(#clip0_618_536)">
<path d="M30.5 43.4503C26.5461 43.4503 22.934 41.9883 20.1736 39.5761C23.0517 42.8695 27.2826 44.9503 32 44.9503C40.6712 44.9503 47.7006 37.921 47.7006 29.2497C47.7006 24.5323 45.6197 20.3015 42.3263 17.4233C44.7386 20.1837 46.2006 23.7958 46.2006 27.7497C46.2006 36.421 39.1712 43.4503 30.5 43.4503Z" fill="#E27F86"/>
<path d="M16.2993 29.2499C16.2993 33.2038 17.7613 36.8159 20.1736 39.5763C22.9339 41.9886 26.5461 43.4506 30.4999 43.4506C39.1712 43.4506 46.2006 36.4212 46.2006 27.7499C46.2006 23.7961 44.7386 20.1839 42.3263 17.4236C39.5659 15.0113 35.9538 13.5493 31.9999 13.5493C23.3287 13.5493 16.2993 20.5787 16.2993 29.2499Z" fill="#E6989E"/>
<path d="M61.1875 59.6875H0.9375V61.5625L62.0625 62.4375L61.1875 59.6875Z" fill="#F7F9FA"/>
<path d="M61.1875 59.6875V61.5625H0.9375V63.4375H63.0625V59.6875H61.1875Z" fill="#DCE6EB"/>
<path d="M63.0625 64.375H16.2994C15.7816 64.375 15.3619 63.9554 15.3619 63.4375C15.3619 62.9196 15.7816 62.5 16.2994 62.5H62.125V60.625H51.4506C50.9329 60.625 50.5131 60.2054 50.5131 59.6875C50.5131 59.1696 50.9329 58.75 51.4506 58.75H63.0625C63.5802 58.75 64 59.1696 64 59.6875V63.4375C64 63.9554 63.5802 64.375 63.0625 64.375ZM20.5494 64.375H0.9375C0.41975 64.375 0 63.9554 0 63.4375V59.6875C0 59.1696 0.41975 58.75 0.9375 58.75H56.7006C57.2184 58.75 57.6381 59.1696 57.6381 59.6875C57.6381 60.2054 57.2184 60.625 56.7006 60.625H1.875V62.5H20.5494C21.0671 62.5 21.4869 62.9196 21.4869 63.4375C21.4869 63.9554 21.0671 64.375 20.5494 64.375ZM32 56.875C31.7601 56.875 31.5201 56.7835 31.3371 56.6005L27.36 52.6234C26.9939 52.2571 26.9939 51.6636 27.36 51.2975C27.7261 50.9315 28.3197 50.9315 28.6857 51.2975L31.0625 53.6744V45.8623C22.3228 45.3744 15.3619 38.1097 15.3619 29.2502C15.3619 28.7324 15.7816 28.3127 16.2994 28.3127C16.779 28.3127 17.1745 28.6729 17.2302 29.1376C17.2346 29.1745 17.2369 29.2121 17.2369 29.2502C17.2369 37.3908 23.8596 44.0134 32 44.0134C40.1404 44.0134 46.7631 37.3905 46.7631 29.25C46.7631 21.1095 40.1405 14.4869 32 14.4869C25.3795 14.4869 19.5269 18.9385 17.7675 25.3124C17.7238 25.4706 17.6422 25.6081 17.5351 25.7178C17.3043 25.9542 16.9554 26.0612 16.6144 25.9666C16.1152 25.8289 15.8224 25.3126 15.9601 24.8135C17.8595 17.9319 23.9917 13.0382 31.0625 12.6384V1.5625C31.0625 1.04462 31.4823 0.625 32 0.625C32.5177 0.625 32.9375 1.04462 32.9375 1.5625V12.638C41.6772 13.1259 48.6381 20.3905 48.6381 29.25C48.6381 38.1095 41.6772 45.3741 32.9375 45.862V53.6741L35.3143 51.2972C35.6804 50.9312 36.274 50.9312 36.64 51.2972C37.0061 51.6635 37.0061 52.257 36.64 52.6231L32.6629 56.6003C32.4799 56.7835 32.2399 56.875 32 56.875ZM29.1335 37.2599C28.6157 37.2599 28.196 36.8403 28.196 36.3224V22.1776C28.196 21.6597 28.6157 21.2401 29.1335 21.2401H34.8664C35.3841 21.2401 35.8039 21.6597 35.8039 22.1776C35.8039 22.6955 35.3841 23.1151 34.8664 23.1151H30.071V28.1786H34.411C34.9287 28.1786 35.3485 28.5982 35.3485 29.1161C35.3485 29.634 34.9287 30.0536 34.411 30.0536H30.071V36.3224C30.071 36.8403 29.6512 37.2599 29.1335 37.2599Z" fill="black"/>
<path d="M15.3619 29.2502C15.3619 28.7324 15.7816 28.3127 16.2994 28.3127C16.779 28.3127 17.1745 28.6729 17.2302 29.1376C17.1806 28.2279 17.1943 26.5905 17.5351 25.7178C17.3043 25.9542 16.9554 26.0612 16.6144 25.9666C16.1152 25.8289 15.8224 25.3126 15.9601 24.8135C15.7147 25.7092 15.2514 27.8505 15.3619 29.2502Z" fill="black"/>
</g>
<defs>
<clipPath id="clip0_618_536">
<rect width="64" height="64" fill="white" transform="translate(0 0.5)"/>
</clipPath>
</defs>
</svg>
