<svg id="Layer_1" data-name="Layer 1" xmlns="http://www.w3.org/2000/svg" viewBox="0 0 481.9321 424.3839">
  <g>
    <path id="fullLogo" d="M439.5826,361.8036c11.3457-6.3562,18.5221-17.8385,18.5221-30.8928,0-10.8672-3.7591-19.889-11.3456-26.86-7.45-7.1764-16.8134-10.7305-27.8172-10.7305H375.4048V402.06H403.222V366.93h9.9787l18.9321,35.13h29.7993ZM418.6,343.35H403.222v-24.4H418.6c6.8347,0,11.6874,4.9893,11.6874,12.2341C430.2875,338.4973,425.4348,343.4866,418.6,343.35Z" style="fill: #263682"/>
    <path id="fullLogo-2" data-name="fullLogo" d="M305.5541,290.9961c-15.9932,0-29.526,5.3994-40.5982,16.4717-11.0039,10.8672-16.4716,24.1949-16.4716,40.188s5.4677,29.3892,16.4716,40.3932q16.6083,16.3007,40.5982,16.3349c15.9931,0,29.3208-5.4678,40.393-16.3349,11.0039-11.004,16.6084-24.4,16.6084-40.3932s-5.6045-29.3208-16.6084-40.188C334.8749,296.3955,321.5472,290.9961,305.5541,290.9961Zm20.9142,77.984a30.8535,30.8535,0,0,1-41.8968,0c-5.6045-5.6044-8.4066-12.7809-8.4066-21.3243s2.8021-15.6515,8.4066-21.1192c5.6045-5.6045,12.5759-8.3384,20.9826-8.3384,8.3383,0,15.378,2.7339,20.9142,8.3384,5.6045,5.4677,8.4066,12.5758,8.4066,21.1192S332.0728,363.3757,326.4683,368.98Z" style="fill: #263682"/>
    <path id="fullLogo-3" data-name="fullLogo" d="M182.8027,290.9961c-15.9932,0-29.5259,5.3994-40.53,16.4717-11.0722,10.8672-16.4716,24.1949-16.4716,40.188s5.3994,29.3892,16.4716,40.3932q16.5059,16.3007,40.53,16.3349c15.9933,0,29.3893-5.4678,40.3931-16.3349,11.0039-11.004,16.6084-24.4,16.6084-40.3932s-5.6045-29.3208-16.6084-40.188C212.192,296.3955,198.796,290.9961,182.8027,290.9961Zm20.9826,77.984a30.9409,30.9409,0,0,1-41.9651,0c-5.6045-5.6044-8.4067-12.7809-8.4067-21.3243s2.8022-15.6515,8.4067-21.1192c5.6044-5.6045,12.5758-8.3384,20.9825-8.3384s15.3781,2.7339,20.9826,8.3384c5.6044,5.4677,8.4067,12.5758,8.4067,21.1192S209.39,363.3757,203.7853,368.98Z" style="fill: #263682"/>
    <path id="fullLogo-4" data-name="fullLogo" d="M64.2889,293.32H20V402.06H64.2889c15.0364,0,27.4755-5.126,37.5909-15.5148,10.1154-10.4571,15.2414-23.5114,15.2414-38.8895s-5.126-28.2273-15.2414-38.6844C91.7644,298.5826,79.3253,293.32,64.2889,293.32Zm18.4537,74.43c-4.7843,4.9209-10.8672,7.45-18.4537,7.45h-15.72V320.18h15.72c7.5865,0,13.6694,2.4605,18.4537,7.5865,4.8526,4.9894,7.1765,11.6874,7.1765,19.889C89.9191,355.9258,87.5952,362.6238,82.7426,367.75Z" style="fill: #263682"/>
    <polygon id="fullLogo-5" data-name="fullLogo" points="227.843 222.376 259.078 270.97 290.176 270.97 254.089 215.063 288.604 162.23 257.506 162.23 227.843 207.954 227.843 162.23 200.026 162.23 200.026 270.97 227.843 270.97 227.843 222.376" style="fill: #263682"/>
    <path id="fullLogo-6" data-name="fullLogo" d="M162.1619,270.97h29.936L156.2157,162.23H122.3839L86.5017,270.97h30.1411l4.6475-15.6515h36.224Zm-33.6951-39.5729,10.8672-36.9758,11.0038,36.9758Z" style="fill: #263682"/>
    <g id="logoMark">
      <rect id="logoMark_PathItem_" data-name="logoMark &lt;PathItem&gt;" x="334.3282" y="244.9302" width="51.0553" height="26.0402" style="fill: #61bb99"/>
      <rect id="logoMark_PathItem_2" data-name="logoMark &lt;PathItem&gt;" x="334.3282" y="203.3068" width="49.5516" height="25.6302" style="fill: #61bb99"/>
      <rect id="logoMark_PathItem_3" data-name="logoMark &lt;PathItem&gt;" x="334.3282" y="162.2303" width="49.9617" height="25.9719" style="fill: #61bb99"/>
      <path id="logoMark_CompoundPathItem_" data-name="logoMark &lt;CompoundPathItem&gt;" d="M266.8013,108.031a72.5952,72.5952,0,0,0,30.7561,12.5076c0,50.6451.4785,100.06.4785,150.4318H324.76V120.5386a72.5946,72.5946,0,0,0,30.7561-12.5076c12.7126-9.2268,20.6409-22.4178,20.6409-37.1808,0-14.8313-7.9283-27.954-20.6409-37.2491C343.9651,25.1943,328.2453,20,311.1585,20s-32.8066,5.1943-44.3572,13.6011c-12.7126,9.2951-20.6408,22.4178-20.6408,37.2491C246.1605,85.6132,254.0887,98.8042,266.8013,108.031Zm15.173-53.5841c7.2448-5.2627,17.5653-8.5434,29.1842-8.5434s21.9394,3.2807,29.1842,8.5434c6.1513,4.4426,9.91,10.2521,9.91,16.4033,0,6.0829-3.7591,11.8924-9.91,16.335a45.0762,45.0762,0,0,1-16.95,7.3131,13.9718,13.9718,0,0,0-2.5971-3.6224,13.696,13.696,0,0,0-19.2739,0,13.9722,13.9722,0,0,0-2.5972,3.6224,45.0776,45.0776,0,0,1-16.95-7.3131c-6.1512-4.4426-9.91-10.2521-9.91-16.335C272.064,64.699,275.8231,58.89,281.9743,54.4469Z" style="fill: #263682"/>
    </g>
    <polygon id="fullLogo-7" data-name="fullLogo" points="47.817 233.721 86.023 233.721 86.023 206.861 47.817 206.861 47.817 189.159 86.775 189.159 86.775 162.23 20 162.23 20 270.97 47.817 270.97 47.817 233.721" style="fill: #263682"/>
  </g>
</svg>
