<svg width="64" height="65" viewBox="0 0 64 65" fill="none" xmlns="http://www.w3.org/2000/svg">
<path d="M9 60.5C11.7614 60.5 14 58.2614 14 55.5C14 52.7386 11.7614 50.5 9 50.5C6.23858 50.5 4 52.7386 4 55.5C4 58.2614 6.23858 60.5 9 60.5Z" fill="#FCD770"/>
<path d="M56 60.5C59.3137 60.5 62 57.8137 62 54.5C62 51.1863 59.3137 48.5 56 48.5C52.6863 48.5 50 51.1863 50 54.5C50 57.8137 52.6863 60.5 56 60.5Z" fill="#FCD770"/>
<path d="M49.17 38.51C49.58 37.34 50.69 36.5 52 36.5C53.66 36.5 55 37.84 55 39.5C55 41.16 53.66 42.5 52 42.5C50.34 42.5 49 41.16 49 39.5C49 39.15 49.06 38.82 49.17 38.51Z" fill="#FCD770"/>
<path d="M32 19.5C33.6569 19.5 35 18.1569 35 16.5C35 14.8431 33.6569 13.5 32 13.5C30.3431 13.5 29 14.8431 29 16.5C29 18.1569 30.3431 19.5 32 19.5Z" fill="#FCD770"/>
<path d="M34.83 29.67C35.55 30.4 36 31.4 36 32.5C36 34.71 34.21 36.5 32 36.5C30.11 36.5 28.53 35.19 28.11 33.42C28.04 33.13 28 32.82 28 32.5C28 31.4 28.45 30.4 29.17 29.67C29.9 28.95 30.9 28.5 32 28.5C33.1 28.5 34.1 28.95 34.83 29.67Z" fill="#FCD770"/>
<path d="M18 36.5C18 38.16 16.66 39.5 15 39.5C13.34 39.5 12 38.16 12 36.5C12 34.84 13.34 33.5 15 33.5C16.42 33.5 17.61 34.48 17.92 35.81C17.97 36.03 18 36.26 18 36.5Z" fill="#FCD770"/>
<path d="M50 5.5C55.52 5.5 60 9.98 60 15.5C60 21.02 55.52 25.5 50 25.5C46.99 25.5 44.28 24.16 42.45 22.05C40.92 20.3 40 18.01 40 15.5C40 9.98 44.48 5.5 50 5.5Z" fill="#FF826E"/>
<path d="M32 62.5C36.9706 62.5 41 58.4706 41 53.5C41 48.5294 36.9706 44.5 32 44.5C27.0294 44.5 23 48.5294 23 53.5C23 58.4706 27.0294 62.5 32 62.5Z" fill="#FF826E"/>
<path d="M13 24.5C19.0751 24.5 24 19.5751 24 13.5C24 7.42487 19.0751 2.5 13 2.5C6.92487 2.5 2 7.42487 2 13.5C2 19.5751 6.92487 24.5 13 24.5Z" fill="#FF826E"/>
<path d="M29.171 56.3281L27.757 57.7421C28.891 58.8761 30.397 59.5001 32 59.5001C33.603 59.5001 35.109 58.8761 36.243 57.7421L34.829 56.3281C33.317 57.8401 30.683 57.8401 29.171 56.3281Z" fill="black"/>
<path d="M7 13.5H5C5 17.911 8.589 21.5 13 21.5V19.5C9.691 19.5 7 16.809 7 13.5Z" fill="black"/>
<path d="M55 15.5H57C57 11.641 53.86 8.5 50 8.5V10.5C52.757 10.5 55 12.743 55 15.5Z" fill="black"/>
<path d="M52 43.5C54.206 43.5 56 41.706 56 39.5C56 37.294 54.206 35.5 52 35.5C50.617 35.5 49.396 36.206 48.678 37.277L36.933 33.167C36.962 32.946 37 32.728 37 32.5C37 31.483 36.691 30.538 36.167 29.747L42.442 23.471C44.415 25.343 47.072 26.5 50 26.5C56.065 26.5 61 21.565 61 15.5C61 9.435 56.065 4.5 50 4.5C43.935 4.5 39 9.435 39 15.5C39 17.917 39.793 20.148 41.12 21.965L34.753 28.333C34.228 27.985 33.637 27.731 33 27.601V20.358C34.72 19.911 36 18.359 36 16.5C36 14.294 34.206 12.5 32 12.5C29.794 12.5 28 14.294 28 16.5C28 18.359 29.28 19.911 31 20.358V27.601C30.363 27.731 29.771 27.985 29.247 28.333L22.155 21.241C23.926 19.149 25 16.449 25 13.5C25 6.883 19.617 1.5 13 1.5C6.383 1.5 1 6.883 1 13.5C1 20.117 6.383 25.5 13 25.5C15.949 25.5 18.649 24.426 20.74 22.655L27.833 29.748C27.309 30.538 27 31.483 27 32.5C27 32.55 27.013 32.596 27.015 32.645L18.522 34.644C17.85 33.376 16.532 32.5 15 32.5C12.794 32.5 11 34.294 11 36.5C11 38.706 12.794 40.5 15 40.5C17.175 40.5 18.943 38.753 18.991 36.589L27.474 34.593C28.133 36.012 29.428 37.079 31 37.4V43.552C25.954 44.056 22 48.325 22 53.501C22 59.015 26.486 63.501 32 63.501C37.514 63.501 42 59.015 42 53.501C42 48.325 38.046 44.055 33 43.552V37.4C34.394 37.116 35.564 36.24 36.274 35.057L48.033 39.172C48.024 39.281 48 39.387 48 39.5C48 41.706 49.794 43.5 52 43.5ZM15 38.5C13.897 38.5 13 37.603 13 36.5C13 35.397 13.897 34.5 15 34.5C16.103 34.5 17 35.397 17 36.5C17 37.603 16.103 38.5 15 38.5ZM50 6.5C54.962 6.5 59 10.537 59 15.5C59 20.463 54.962 24.5 50 24.5C45.038 24.5 41 20.463 41 15.5C41 10.537 45.038 6.5 50 6.5ZM30 16.5C30 15.397 30.897 14.5 32 14.5C33.103 14.5 34 15.397 34 16.5C34 17.603 33.103 18.5 32 18.5C30.897 18.5 30 17.603 30 16.5ZM13 23.5C7.486 23.5 3 19.014 3 13.5C3 7.986 7.486 3.5 13 3.5C18.514 3.5 23 7.986 23 13.5C23 19.014 18.514 23.5 13 23.5ZM40 53.5C40 57.911 36.411 61.5 32 61.5C27.589 61.5 24 57.911 24 53.5C24 49.089 27.589 45.5 32 45.5C36.411 45.5 40 49.089 40 53.5ZM32 35.5C30.346 35.5 29 34.154 29 32.5C29 30.846 30.346 29.5 32 29.5C33.654 29.5 35 30.846 35 32.5C35 34.154 33.654 35.5 32 35.5ZM52 37.5C53.103 37.5 54 38.397 54 39.5C54 40.603 53.103 41.5 52 41.5C50.897 41.5 50 40.603 50 39.5C50 38.397 50.897 37.5 52 37.5Z" fill="black"/>
<path d="M9 49.5C5.691 49.5 3 52.191 3 55.5C3 58.809 5.691 61.5 9 61.5C12.309 61.5 15 58.809 15 55.5C15 52.191 12.309 49.5 9 49.5ZM9 59.5C6.794 59.5 5 57.706 5 55.5C5 53.294 6.794 51.5 9 51.5C11.206 51.5 13 53.294 13 55.5C13 57.706 11.206 59.5 9 59.5Z" fill="black"/>
<path d="M56 47.5C52.14 47.5 49 50.641 49 54.5C49 58.359 52.14 61.5 56 61.5C59.86 61.5 63 58.359 63 54.5C63 50.641 59.86 47.5 56 47.5ZM56 59.5C53.243 59.5 51 57.257 51 54.5C51 51.743 53.243 49.5 56 49.5C58.757 49.5 61 51.743 61 54.5C61 57.257 58.757 59.5 56 59.5Z" fill="black"/>
</svg>
