<svg width="64" height="65" viewBox="0 0 64 65" fill="none" xmlns="http://www.w3.org/2000/svg">
<g clip-path="url(#clip0_666_3350)">
<path d="M10.2562 58.4651C12.4908 58.4651 14.3022 56.6536 14.3022 54.4191C14.3022 52.1845 12.4908 50.373 10.2562 50.373C8.02167 50.373 6.21021 52.1845 6.21021 54.4191C6.21021 56.6536 8.02167 58.4651 10.2562 58.4651Z" fill="#FF5D5D"/>
<path d="M34.7503 43.9258V46.5508C34.7503 47.3102 34.1346 47.9258 33.3753 47.9258H30.6252C29.8659 47.9258 29.2502 47.3102 29.2502 46.5508V43.9258H34.7503Z" fill="#D8D8E4"/>
<path d="M42.0002 26.9258H22.0001C20.0671 26.9258 18.5001 25.3588 18.5001 23.4258C18.5001 21.4928 20.0671 19.9258 22.0001 19.9258H42.0002C43.9332 19.9258 45.5002 21.4928 45.5002 23.4258C45.5002 25.3588 43.9332 26.9258 42.0002 26.9258Z" fill="#FEE45A"/>
<path d="M42.0002 26.9258V33.9258C42.0002 39.4487 37.523 43.9258 32.0001 43.9258C26.4773 43.9258 22.0001 39.4487 22.0001 33.9258V26.9258" fill="#FEE97D"/>
<path d="M25.1251 8.42529C23.7444 8.42529 22.6251 9.54455 22.6251 10.9253V19.9253H27.6251V10.9253C27.6251 9.54455 26.5059 8.42529 25.1251 8.42529Z" fill="#D8D8E4"/>
<path d="M38.8751 8.42529C37.4944 8.42529 36.3751 9.54455 36.3751 10.9253V19.9253H41.3751V10.9253C41.3751 9.54455 40.2559 8.42529 38.8751 8.42529Z" fill="#D8D8E4"/>
<path d="M10.2566 49.1232C9.42098 49.1232 8.61548 49.317 7.88935 49.6805C0.753959 39.5712 0.499875 21.0001 15.2927 8.24355C15.6932 7.6813 15.5622 6.9008 15 6.50017C14.4377 6.09955 13.6572 6.23055 13.2566 6.7928C3.5 14.0001 -0.112542 26.3244 0.00470819 33.2228C0.116333 39.7877 2.17759 46.0152 5.97522 51.3019C4.46622 53.3719 4.64484 56.2971 6.51172 58.1643C7.54422 59.1966 8.90035 59.7129 10.2566 59.7129C11.6129 59.7129 12.969 59.1966 14.0015 58.1643C16.0664 56.0993 16.0664 52.7395 14.0015 50.6745C13.0011 49.6741 11.6711 49.1232 10.2566 49.1232ZM12.2336 56.3964C11.1432 57.4865 9.3696 57.4865 8.27948 56.3964C7.18922 55.3061 7.18922 53.5322 8.27948 52.4421C8.8076 51.914 9.50973 51.6231 10.2565 51.6231C11.0032 51.6231 11.7055 51.914 12.2335 52.4421C13.3239 53.5324 13.3239 55.3063 12.2336 56.3964Z" fill="black"/>
<path d="M49.2503 56.6119C45.6768 59.194 41.6597 60.9046 37.3104 61.6963C36.3027 61.8798 35.2749 61.6096 34.4908 60.9554C33.7123 60.3059 33.2659 59.3516 33.2659 58.3375V49.1753H33.375C34.8224 49.1753 36 47.9977 36 46.5502V44.4399C40.2342 42.8236 43.2501 38.7204 43.2501 33.9253V28.0072C45.2646 27.457 46.7501 25.6118 46.7501 23.4253C46.7501 21.0182 44.9497 19.0248 42.6251 18.7177V10.9253C42.6251 8.85755 40.9428 7.17529 38.875 7.17529C36.8073 7.17529 35.125 8.85755 35.125 10.9253V18.6753H28.875V10.9253C28.875 8.85755 27.1928 7.17529 25.125 7.17529C23.0573 7.17529 21.375 8.85755 21.375 10.9253V18.7177C19.0504 19.0248 17.25 21.0181 17.25 23.4253C17.25 25.6118 18.7355 27.457 20.75 28.0072V33.9253C20.75 38.7204 23.7659 42.8236 28 44.4399V46.5504C28 47.9979 29.1776 49.1754 30.625 49.1754H30.7659V58.3376C30.7659 60.0954 31.5398 61.7491 32.889 62.875C33.9659 63.7735 35.3079 64.2529 36.6864 64.2529C37.0425 64.2529 37.401 64.2209 37.758 64.1559C42.4771 63.2969 46.8362 61.4405 50.7142 58.6383C51.2738 58.2339 51.3996 57.4525 50.9953 56.893C50.5914 56.3335 49.8102 56.2075 49.2503 56.6119ZM37.6252 10.9253C37.6252 10.236 38.1859 9.6753 38.8752 9.6753C39.5644 9.6753 40.1252 10.236 40.1252 10.9253V18.6753H37.6252V10.9253ZM23.8751 10.9253C23.8751 10.236 24.4359 9.6753 25.1251 9.6753C25.8144 9.6753 26.3751 10.236 26.3751 10.9253V18.6753H23.8751V10.9253ZM19.7501 23.4253C19.7501 22.1847 20.7595 21.1753 22.0001 21.1753H42.0002C43.2408 21.1753 44.2502 22.1847 44.2502 23.4253C44.2502 24.666 43.2408 25.6753 42.0002 25.6753H22.0001C20.7595 25.6753 19.7501 24.666 19.7501 23.4253ZM23.2501 33.9253V28.1753H40.7502V33.9253C40.7502 38.7501 36.8249 42.6754 32.0002 42.6754C27.1754 42.6754 23.2501 38.7501 23.2501 33.9253ZM30.5002 46.5504V45.0751C30.991 45.1409 31.4917 45.1754 32.0002 45.1754C32.5087 45.1754 33.0093 45.1409 33.5002 45.0751V46.5504C33.5002 46.6192 33.4442 46.6754 33.3752 46.6754H32.0475C32.037 46.6751 32.0267 46.6737 32.0162 46.6737C32.0057 46.6737 31.9953 46.6751 31.9848 46.6754H30.6254C30.5562 46.6754 30.5002 46.6192 30.5002 46.5504Z" fill="black"/>
<path d="M63.5 30.5979C62.9432 22.9457 59.6448 15.7397 54.2129 10.3075C48.8739 4.96815 41.7419 1.69989 34.1307 1.10502C26.6123 0.517141 19.1297 2.55739 13.0587 6.8494C12.4949 7.2479 12.3611 8.02803 12.7596 8.59166C13.1579 9.15528 13.9382 9.28941 14.5018 8.89078C26.111 0.683642 42.423 2.05252 52.4451 12.0753C64.9999 24.6308 62.4999 47.5 49.3459 56.512C48.9384 57.0693 49.0598 57.8513 49.6171 58.2589C49.8396 58.4217 49.7438 59 49.9999 59C50.385 59 51.1192 58.3227 51.3641 57.9878C60.9999 50.5 64.0514 38.1711 63.5 30.5979Z" fill="black"/>
<path d="M32.2386 39.2772L34.8263 34.7084C35.0455 34.3214 35.0425 33.8472 34.8185 33.4629C34.5945 33.0787 34.1833 32.8424 33.7385 32.8424H32.8453L34.4905 30.7642C34.919 30.2229 34.8275 29.4367 34.2863 29.0083C33.745 28.5797 32.9588 28.6713 32.5303 29.2124L29.2813 33.3166C28.9838 33.6924 28.9274 34.2053 29.1361 34.6368C29.3449 35.0683 29.782 35.3424 30.2614 35.3424H31.5939L30.0631 38.0452C29.7229 38.6459 29.9341 39.4087 30.5346 39.7488C30.7294 39.8591 30.9408 39.9114 31.1496 39.9114C31.5855 39.9113 32.0086 39.6832 32.2386 39.2772Z" fill="black"/>
</g>
<defs>
<clipPath id="clip0_666_3350">
<rect width="64" height="64" fill="white" transform="translate(0 0.5)"/>
</clipPath>
</defs>
</svg>
