<svg width="62" height="61" viewBox="0 0 62 61" fill="none" xmlns="http://www.w3.org/2000/svg">
<path d="M27.01 40.2303C28.6244 39.9444 30.1879 39.4221 31.65 38.6803C34.9047 37.0456 37.5454 34.4049 39.18 31.1503C39.9218 29.6881 40.4441 28.1247 40.73 26.5103C37.1122 26.5772 33.6612 28.0442 31.1026 30.6028C28.5439 33.1614 27.0769 36.6124 27.01 40.2303Z" fill="#EE8700"/>
<path d="M27.91 45.4599C27.6833 44.8774 27.4995 44.2791 27.36 43.6699C28.55 42.1699 29.96 40.5099 31.65 38.6799C34.9046 37.0452 37.5453 34.4045 39.18 31.1499C41.01 29.4599 42.67 28.0499 44.17 26.8599C44.7792 26.9994 45.3775 27.1832 45.96 27.4099C45.99 27.7699 46 28.1299 46 28.4999C46.0008 29.2457 45.9507 29.9908 45.85 30.7299C40.4958 35.0974 35.5975 39.9957 31.23 45.3499C30.4909 45.4506 29.7459 45.5007 29 45.4999C28.63 45.4999 28.27 45.4899 27.91 45.4599Z" fill="#FF9811"/>
<path d="M55 40.5001C55 40.7901 54.99 41.0801 54.97 41.3701C54.7592 44.7754 53.3114 47.9864 50.8988 50.3989C48.4863 52.8115 45.2753 54.2593 41.87 54.4701C41.58 54.4901 41.29 54.5001 41 54.5001C39.9332 54.4985 38.8699 54.3777 37.83 54.1401C40.9266 51.6548 43.875 48.9902 46.66 46.1601C49.4901 43.3751 52.1546 40.4267 54.64 37.3301C54.8776 38.37 54.9984 39.4333 55 40.5001Z" fill="#FF9811"/>
<path d="M45.9599 27.4099C45.3774 27.1833 44.7792 26.9994 44.1699 26.8599C43.13 26.6223 42.0667 26.5015 40.9999 26.4999C40.9098 26.4983 40.8197 26.5016 40.7299 26.5099C40.444 28.1243 39.9218 29.6878 39.1799 31.1499C37.5453 34.4046 34.9046 37.0453 31.6499 38.6799C30.1878 39.4218 28.6243 39.944 27.0099 40.2299C27.0016 40.3197 26.9983 40.4098 26.9999 40.4999C27.0015 41.5667 27.1223 42.63 27.3599 43.6699C27.4994 44.2792 27.6833 44.8774 27.9099 45.4599C28.2699 45.4899 28.6299 45.4999 28.9999 45.4999C29.7458 45.5008 30.4909 45.4506 31.2299 45.3499C34.9366 44.8629 38.3789 43.166 41.0224 40.5224C43.666 37.8789 45.3629 34.4366 45.8499 30.7299C45.9506 29.9909 46.0008 29.2458 45.9999 28.4999C45.9999 28.1299 45.9899 27.7699 45.9599 27.4099Z" fill="#FF9811"/>
<path d="M52.8099 32.9902C51.7089 31.2591 50.241 29.7911 48.5099 28.6902C47.7063 28.1767 46.8518 27.7477 45.9599 27.4102C45.9899 27.7702 45.9999 28.1302 45.9999 28.5002C46.0008 29.246 45.9506 29.9911 45.8499 30.7302C45.3629 34.4368 43.6659 37.8791 41.0224 40.5226C38.3789 43.1662 34.9366 44.8632 31.2299 45.3502C30.4909 45.4509 29.7458 45.501 28.9999 45.5002C28.6299 45.5002 28.2699 45.4902 27.9099 45.4602C28.2454 46.3529 28.6745 47.2077 29.1899 48.0102C31.1603 51.102 34.2607 53.3018 37.8299 54.1402C40.9265 51.6548 43.8749 48.9903 46.6599 46.1602C49.49 43.3752 52.1546 40.4268 54.6399 37.3302C54.2785 35.7908 53.6598 34.3235 52.8099 32.9902Z" fill="#FFA733"/>
<path d="M4 48.5C5.10457 48.5 6 47.6046 6 46.5C6 45.3954 5.10457 44.5 4 44.5C2.89543 44.5 2 45.3954 2 46.5C2 47.6046 2.89543 48.5 4 48.5Z" fill="#BCBEC0"/>
<path d="M40 13.5C41.1046 13.5 42 12.6046 42 11.5C42 10.3954 41.1046 9.5 40 9.5C38.8954 9.5 38 10.3954 38 11.5C38 12.6046 38.8954 13.5 40 13.5Z" fill="#BCBEC0"/>
<path d="M11 17.5C14.866 17.5 18 14.366 18 10.5C18 6.63401 14.866 3.5 11 3.5C7.13401 3.5 4 6.63401 4 10.5C4 14.366 7.13401 17.5 11 17.5Z" fill="#D1D3D4"/>
<path d="M55 40.5001C55 40.7901 54.99 41.0801 54.97 41.3701C53.27 43.3801 51.19 45.6301 48.66 48.1601C46.13 50.6901 43.88 52.7701 41.87 54.4701C41.58 54.4901 41.29 54.5001 41 54.5001C39.9332 54.4985 38.8699 54.3777 37.83 54.1401C40.9266 51.6548 43.875 48.9902 46.66 46.1601C49.4901 43.3751 52.1546 40.4267 54.64 37.3301C54.8776 38.37 54.9984 39.4333 55 40.5001Z" fill="#EE8700"/>
<path d="M58.6799 22.8198C57.5499 21.6898 54.5599 18.7098 44.1699 26.8598C44.7792 26.9993 45.3775 27.1832 45.9599 27.4098C46.8518 27.7474 47.7064 28.1764 48.5099 28.6898C52.2099 26.0298 54.9899 24.7898 55.8499 25.6498C56.7099 26.5098 55.4699 29.2898 52.8099 32.9898C50.0904 36.665 47.0879 40.1222 43.8299 43.3298C40.6223 46.5878 37.1652 49.5903 33.4899 52.3098C29.7899 54.9698 27.0099 56.2098 26.1499 55.3498C25.2899 54.4898 26.5299 51.7098 29.1899 48.0098C28.6745 47.2073 28.2455 46.3526 27.9099 45.4598C27.6833 44.8773 27.4995 44.2791 27.3599 43.6698C19.2099 54.0598 22.1899 57.0498 23.3199 58.1798C24.4499 59.3098 27.4399 62.2898 37.8299 54.1398C40.9266 51.6545 43.8749 48.9899 46.6599 46.1598C49.4901 43.3748 52.1546 40.4264 54.6399 37.3298C62.7899 26.9398 59.8099 23.9498 58.6799 22.8198Z" fill="#E6E7E8"/>
<path d="M59.3869 22.1131C57.3779 20.1031 53.5799 18.3371 43.9109 25.8031C42.9524 25.6099 41.9777 25.5085 40.9999 25.5001C37.0231 25.5046 33.2104 27.0864 30.3983 29.8985C27.5862 32.7105 26.0044 36.5232 25.9999 40.5001C26.0072 41.4774 26.1077 42.4518 26.2999 43.4101C18.8329 53.0791 20.5999 56.8761 22.6089 58.8871C23.138 59.451 23.779 59.8983 24.4908 60.2004C25.2027 60.5024 25.9697 60.6525 26.7429 60.6411C29.1879 60.6411 32.7429 59.3301 38.0899 55.1981C39.0481 55.3912 40.0225 55.4923 40.9999 55.5001C44.9768 55.4956 48.7895 53.9138 51.6016 51.1017C54.4136 48.2897 55.9954 44.477 55.9999 40.5001C55.993 39.5224 55.8926 38.5476 55.6999 37.5891C63.1629 27.9211 61.3999 24.1241 59.3869 22.1131ZM52.7939 31.2551C52.0493 30.3062 51.1936 29.45 50.2449 28.7051C53.2519 26.6831 54.6949 26.3131 55.1219 26.3781C55.1749 26.7921 54.8149 28.2441 52.7939 31.2551ZM47.9739 29.5341C49.3837 30.4411 50.6058 31.6106 51.5739 32.9791C48.9906 36.3912 46.1664 39.6141 43.1229 42.6231C40.114 45.6666 36.8911 48.4908 33.4789 51.0741C32.1097 50.1063 30.9394 48.8841 30.0319 47.4741C29.8259 47.1521 29.6369 46.8201 29.4599 46.4811C34.0679 46.359 38.4534 44.4737 41.7125 41.2139C44.9716 37.954 46.8559 33.5681 46.9769 28.9601C47.3169 29.1371 47.6509 29.3271 47.9739 29.5341ZM41.5299 27.5341C42.3403 27.5619 43.1465 27.6623 43.9389 27.8341C44.2949 27.9181 44.6389 28.0171 44.9869 28.1281C44.9869 28.2531 44.9999 28.3741 44.9999 28.5011C44.9946 32.7428 43.3072 36.8093 40.3077 39.8086C37.3083 42.8079 33.2417 44.4951 28.9999 44.5001C28.8729 44.5001 28.7519 44.4891 28.6269 44.4861C28.5169 44.1461 28.4189 43.8011 28.3359 43.4501C28.1613 42.6543 28.0589 41.8443 28.0299 41.0301C31.3197 40.2723 34.3301 38.6045 36.7172 36.2174C39.1044 33.8302 40.7721 30.8199 41.5299 27.5301V27.5341ZM29.2049 49.7451C29.9504 50.6936 30.8065 51.5496 31.7549 52.2951C28.7459 54.3141 27.2989 54.6731 26.8779 54.6221C26.8249 54.2081 27.1849 52.7561 29.2049 49.7451ZM39.4659 27.6001C38.7407 30.3279 37.3076 32.8156 35.3116 34.8114C33.3157 36.8072 30.8278 38.2401 28.0999 38.9651C28.4483 36.0716 29.7579 33.3789 31.8187 31.3182C33.8796 29.2575 36.5724 27.9482 39.4659 27.6001ZM24.0269 57.4731C23.2119 56.6581 20.8269 54.2641 26.9889 45.8191C27.2698 46.5588 27.6095 47.2748 28.0049 47.9601C24.0919 53.5551 24.6519 55.2661 25.4429 56.0601C25.6348 56.2535 25.8651 56.4046 26.119 56.5034C26.3729 56.6023 26.6448 56.6468 26.9169 56.6341C28.1659 56.6341 30.2779 55.8541 34.0739 53.1251C37.791 50.3715 41.2891 47.3341 44.5369 44.0401C47.8311 40.7928 50.8683 37.2946 53.6209 33.5771C57.9579 27.5451 57.3729 25.7621 56.5569 24.9461C55.7639 24.1531 54.0569 23.5961 48.4569 27.5081C47.7714 27.1125 47.055 26.7727 46.3149 26.4921C54.7629 20.3301 57.1549 22.7141 57.9699 23.5301C58.8319 24.3931 61.4569 27.0191 53.8509 36.7141C51.389 39.7786 48.7513 42.6975 45.9509 45.4561C43.1929 48.2563 40.2747 50.8941 37.2109 53.3561C27.5149 60.9601 24.8899 58.3351 24.0269 57.4731ZM40.9999 53.5001C40.7499 53.5001 40.4999 53.4711 40.2429 53.4571C42.4429 51.6031 44.8309 49.4031 47.3669 46.8671C49.9029 44.3311 52.1009 41.9501 53.9559 39.7431C53.9709 39.9961 53.9999 40.2501 53.9999 40.5001C53.996 43.9467 52.625 47.251 50.1879 49.6881C47.7508 52.1252 44.4465 53.4961 40.9999 53.5001Z" fill="black"/>
<path d="M2.99996 10.5C2.99691 11.7755 3.29962 13.0332 3.88273 14.1677C4.46584 15.3021 5.31236 16.2802 6.35136 17.0201C7.39035 17.76 8.59156 18.2401 9.85431 18.4202C11.1171 18.6003 12.4046 18.475 13.609 18.055C16.17 19.955 18.146 20.925 19.499 20.924C19.7559 20.9362 20.0126 20.8957 20.2534 20.8051C20.4941 20.7145 20.7138 20.5756 20.899 20.397C22.07 19.226 21.267 16.768 18.555 13.114C19.0509 11.6962 19.1366 10.1672 18.8023 8.7029C18.4679 7.23856 17.7271 5.89831 16.6649 4.83626C15.6028 3.77422 14.2624 3.03351 12.7981 2.6993C11.3337 2.36509 9.80471 2.45096 8.38696 2.94702C4.73296 0.234024 2.27296 -0.567976 1.09996 0.600024C-0.0730359 1.76802 0.734964 4.23402 3.44696 7.88702C3.15257 8.72682 3.00146 9.61013 2.99996 10.5ZM4.99996 10.5C4.99996 10.3 5.01096 10.1 5.02996 9.90002C5.98196 11.035 7.03996 12.2 8.17296 13.329C9.30596 14.458 10.467 15.521 11.601 16.472C11.401 16.491 11.201 16.502 11.001 16.502C9.40963 16.5007 7.88387 15.8679 6.75873 14.7426C5.63358 13.6172 5.00102 12.0914 4.99996 10.5ZM19.435 18.935C19.001 18.916 17.785 18.535 15.607 17.029C16.352 16.502 17.0019 15.8521 17.529 15.107C19.036 17.284 19.416 18.5 19.435 18.935ZM17 10.5C16.9993 11.5735 16.7107 12.6271 16.1643 13.5511C15.6178 14.475 14.8334 15.2354 13.893 15.753C12.3836 14.5585 10.9458 13.2763 9.58696 11.913C8.22342 10.5541 6.9412 9.11592 5.74696 7.60602C6.38977 6.44139 7.40137 5.52339 8.62276 4.99634C9.84415 4.4693 11.2061 4.36309 12.4944 4.69442C13.7827 5.02574 14.9244 5.77582 15.74 6.82672C16.5556 7.87763 16.9988 9.16977 17 10.5ZM2.56496 2.06502C2.99896 2.08402 4.21496 2.46502 6.39296 3.97102C5.64793 4.49806 4.998 5.14799 4.47096 5.89302C2.96396 3.71602 2.58396 2.50002 2.56496 2.06502Z" fill="black"/>
<path d="M37 11.5C37 12.0933 37.1759 12.6734 37.5056 13.1667C37.8352 13.6601 38.3038 14.0446 38.852 14.2716C39.4001 14.4987 40.0033 14.5581 40.5853 14.4424C41.1672 14.3266 41.7018 14.0409 42.1213 13.6213C42.5409 13.2018 42.8266 12.6672 42.9424 12.0853C43.0581 11.5033 42.9987 10.9001 42.7716 10.3519C42.5446 9.80377 42.1601 9.33524 41.6667 9.00559C41.1734 8.67595 40.5933 8.5 40 8.5C39.2044 8.5 38.4413 8.81607 37.8787 9.37868C37.3161 9.94129 37 10.7044 37 11.5ZM40 10.5C40.1978 10.5 40.3911 10.5586 40.5556 10.6685C40.72 10.7784 40.8482 10.9346 40.9239 11.1173C40.9996 11.3 41.0194 11.5011 40.9808 11.6951C40.9422 11.8891 40.847 12.0673 40.7071 12.2071C40.5673 12.347 40.3891 12.4422 40.1951 12.4808C40.0011 12.5194 39.8 12.4996 39.6173 12.4239C39.4346 12.3482 39.2784 12.22 39.1685 12.0556C39.0586 11.8911 39 11.6978 39 11.5C39 11.2348 39.1054 10.9804 39.2929 10.7929C39.4804 10.6054 39.7348 10.5 40 10.5Z" fill="black"/>
<path d="M4 43.5C3.40666 43.5 2.82664 43.6759 2.33329 44.0056C1.83994 44.3352 1.45543 44.8038 1.22836 45.352C1.0013 45.9001 0.94189 46.5033 1.05765 47.0853C1.1734 47.6672 1.45912 48.2018 1.87868 48.6213C2.29824 49.0409 2.83279 49.3266 3.41473 49.4424C3.99667 49.5581 4.59987 49.4987 5.14805 49.2716C5.69623 49.0446 6.16477 48.6601 6.49441 48.1667C6.82405 47.6734 7 47.0933 7 46.5C7 45.7044 6.68393 44.9413 6.12132 44.3787C5.55871 43.8161 4.79565 43.5 4 43.5ZM4 47.5C3.80222 47.5 3.60888 47.4414 3.44443 47.3315C3.27998 47.2216 3.15181 47.0654 3.07612 46.8827C3.00043 46.7 2.98063 46.4989 3.01922 46.3049C3.0578 46.1109 3.15304 45.9327 3.29289 45.7929C3.43275 45.653 3.61093 45.5578 3.80491 45.5192C3.99889 45.4806 4.19996 45.5004 4.38268 45.5761C4.56541 45.6518 4.72159 45.78 4.83147 45.9444C4.94135 46.1089 5 46.3022 5 46.5C5 46.7652 4.89464 47.0196 4.70711 47.2071C4.51957 47.3946 4.26522 47.5 4 47.5Z" fill="black"/>
<path d="M55 6.5H57V4.5H59V2.5H57V0.5H55V2.5H53V4.5H55V6.5Z" fill="black"/>
<path d="M59 50.5H61V52.5H59V50.5Z" fill="black"/>
<path d="M52 58.5H54V60.5H52V58.5Z" fill="black"/>
<path d="M7 27.5H5V29.5H3V31.5H5V33.5H7V31.5H9V29.5H7V27.5Z" fill="black"/>
<path d="M17.9999 29.5H19.9999V31.5H17.9999V29.5Z" fill="black"/>
<path d="M36 1.5H38V3.5H36V1.5Z" fill="black"/>
<path d="M10 55.5H12V57.5H10V55.5Z" fill="black"/>
</svg>
