<svg width="64" height="65" viewBox="0 0 64 65" fill="none" xmlns="http://www.w3.org/2000/svg">
<g clip-path="url(#clip0_618_546)">
<path d="M39.4666 32.4999C39.1837 32.4999 38.9124 32.6123 38.7124 32.8123C38.5124 33.0124 38.4 33.2837 38.4 33.5666C38.4 37.6135 36.4458 41.0332 34.1333 41.0332C31.8208 41.0332 29.8666 37.6135 29.8666 33.5666C29.8666 27.5858 27.0549 22.8999 23.4666 22.8999C20.3904 22.8999 17.713 26.438 17.1008 31.3138C17.0654 31.5945 17.143 31.8779 17.3166 32.1014C17.4901 32.325 17.7453 32.4704 18.0261 32.5058C18.3069 32.5411 18.5902 32.4635 18.8138 32.29C19.0373 32.1164 19.1827 31.8612 19.2181 31.5804C19.6789 27.9132 21.5466 25.0332 23.4666 25.0332C25.4848 25.0332 27.7333 28.5372 27.7333 33.5666C27.7333 38.95 30.545 43.1666 34.1333 43.1666C37.7216 43.1666 40.5333 38.95 40.5333 33.5666C40.5333 33.2837 40.4209 33.0124 40.2209 32.8123C40.0209 32.6123 39.7495 32.4999 39.4666 32.4999Z" fill="#3FDAB1"/>
<path d="M9.06662 25.0332C5.77702 25.0332 3.19995 28.7815 3.19995 33.5665C3.19995 33.8494 3.31233 34.1207 3.51237 34.3208C3.71241 34.5208 3.98372 34.6332 4.26662 34.6332C4.54952 34.6332 4.82083 34.5208 5.02086 34.3208C5.2209 34.1207 5.33328 33.8494 5.33328 33.5665C5.33328 30.0977 7.03995 27.1665 9.06662 27.1665C10.8458 27.1665 12.5621 29.2263 12.7402 31.574C12.7495 31.7143 12.7867 31.8512 12.8495 31.9769C12.9124 32.1026 12.9998 32.2145 13.1065 32.306C13.2132 32.3975 13.3371 32.4668 13.4709 32.5098C13.6047 32.5528 13.7458 32.5686 13.8858 32.5564C14.1679 32.5346 14.4297 32.4017 14.6137 32.1868C14.7978 31.972 14.8889 31.6929 14.8672 31.4108C14.6005 27.8951 11.9978 25.0332 9.06662 25.0332Z" fill="#37CBA1"/>
<path d="M34.1334 49.5667C29.9734 49.5667 27.7334 41.3224 27.7334 33.5667C27.7334 24.4509 25.2065 18.6333 23.4667 18.6333C21.9595 18.6333 19.5809 23.2125 19.2246 31.4931C19.221 31.6338 19.1891 31.7723 19.1308 31.9005C19.0725 32.0286 18.989 32.1436 18.8853 32.2388C18.7815 32.334 18.6597 32.4073 18.5271 32.4543C18.3944 32.5014 18.2536 32.5213 18.1131 32.5128C17.8305 32.5006 17.5643 32.3767 17.3731 32.1682C17.1819 31.9598 17.0812 31.6839 17.0934 31.4013C17.4134 23.9848 19.5073 16.5 23.4667 16.5C27.6683 16.5 29.8667 25.0856 29.8667 33.5667C29.8667 42.0317 32.3937 47.4333 34.1334 47.4333C35.8731 47.4333 38.4001 42.0317 38.4001 33.5667C38.4001 29.9784 40.2742 27.1667 42.6667 27.1667C45.0593 27.1667 46.9334 29.9784 46.9334 33.5667C46.9334 36.0083 48.0598 37.8333 49.0667 37.8333C50.0737 37.8333 51.2001 36.0083 51.2001 33.5667C51.2001 28.0936 53.2641 23.9667 56.0001 23.9667C58.7361 23.9667 60.8001 28.0936 60.8001 33.5667C60.8001 33.8496 60.6877 34.1209 60.4876 34.3209C60.2876 34.521 60.0163 34.6333 59.7334 34.6333C59.4505 34.6333 59.1792 34.521 58.9791 34.3209C58.7791 34.1209 58.6667 33.8496 58.6667 33.5667C58.6667 29.0088 57.0881 26.1 56.0001 26.1C54.9121 26.1 53.3334 29.0088 53.3334 33.5667C53.3334 37.1549 51.4593 39.9667 49.0667 39.9667C46.6742 39.9667 44.8001 37.1549 44.8001 33.5667C44.8001 31.1251 43.6737 29.3 42.6667 29.3C41.6598 29.3 40.5334 31.1251 40.5334 33.5667C40.5334 41.3224 38.2934 49.5667 34.1334 49.5667Z" fill="#37CBA1"/>
<path d="M34.1333 55.9665C29.7365 55.9665 27.7333 44.3548 27.7333 33.5665C27.7333 20.4529 24.9141 13.2998 23.4666 13.2998C22.1429 13.2998 19.52 19.542 19.2256 31.4726C19.2042 32.3116 18.8587 33.1098 18.2616 33.6995C17.6645 34.2893 16.8621 34.6249 16.0229 34.6358C15.1837 34.6467 14.3729 34.3321 13.7606 33.758C13.1484 33.184 12.7823 32.3951 12.7392 31.5569C12.352 25.2124 10.3573 21.8332 9.06662 21.8332C7.54448 21.8332 5.33328 26.4038 5.33328 33.5665C5.33328 33.8494 5.2209 34.1207 5.02086 34.3208C4.82083 34.5208 4.54952 34.6332 4.26662 34.6332C3.98372 34.6332 3.71241 34.5208 3.51237 34.3208C3.31233 34.1207 3.19995 33.8494 3.19995 33.5665C3.19995 26.8465 5.25648 19.6998 9.06662 19.6998C12.5792 19.6998 14.512 25.59 14.8682 31.4332C14.8841 31.7186 15.0077 31.9874 15.2139 32.1854C15.4202 32.3833 15.6938 32.4957 15.9797 32.4998C16.2689 32.4992 16.5465 32.3862 16.754 32.1849C16.9616 31.9835 17.0828 31.7094 17.0922 31.4204C17.28 23.8982 18.8288 11.1665 23.4666 11.1665C27.8634 11.1665 29.8666 22.7782 29.8666 33.5665C29.8666 46.6801 32.6858 53.8332 34.1333 53.8332C35.5808 53.8332 38.4 46.6801 38.4 33.5665C38.4 27.9132 39.7354 21.8332 42.6666 21.8332C45.5978 21.8332 46.9333 27.9132 46.9333 33.5665C46.9333 40.0134 48.3509 43.942 49.1114 44.2396C49.7824 43.942 51.2 40.0134 51.2 33.5665C51.2 27.6241 52.2112 17.5665 56 17.5665C59.7888 17.5665 60.8 27.6241 60.8 33.5665C60.8 33.8494 60.6876 34.1207 60.4875 34.3208C60.2875 34.5208 60.0162 34.6332 59.7333 34.6332C59.4504 34.6332 59.1791 34.5208 58.979 34.3208C58.779 34.1207 58.6666 33.8494 58.6666 33.5665C58.6666 25.0033 56.9152 19.9857 55.9776 19.6998C55.0848 19.9857 53.3333 25.0033 53.3333 33.5665C53.3333 38.3206 52.4341 46.3665 49.0666 46.3665C45.6992 46.3665 44.8 38.3206 44.8 33.5665C44.8 27.3254 43.2426 24.1265 42.6506 23.9665C42.0906 24.1265 40.5333 27.3254 40.5333 33.5665C40.5333 44.3548 38.5301 55.9665 34.1333 55.9665Z" fill="#31B791"/>
<path d="M62.9333 34.6333H1.06667C0.783769 34.6333 0.512458 34.521 0.312419 34.3209C0.112381 34.1209 0 33.8496 0 33.5667C0 33.2838 0.112381 33.0125 0.312419 32.8124C0.512458 32.6124 0.783769 32.5 1.06667 32.5H62.9333C63.2162 32.5 63.4875 32.6124 63.6876 32.8124C63.8876 33.0125 64 33.2838 64 33.5667C64 33.8496 63.8876 34.1209 63.6876 34.3209C63.4875 34.521 63.2162 34.6333 62.9333 34.6333Z" fill="#295474"/>
</g>
<defs>
<clipPath id="clip0_618_546">
<rect width="64" height="64" fill="white" transform="translate(0 0.5)"/>
</clipPath>
</defs>
</svg>
